<svg version="1.2" xmlns="http://www.w3.org/2000/svg" viewBox="0 0 40 40" width="40" height="40">
	<title>ricky-0827292994-svg</title>
	<defs>
		<clipPath clipPathUnits="userSpaceOnUse" id="cp1">
			<path d="m0 0h148v40h-148z"/>
		</clipPath>
	</defs>
	<style>
		.s0 { fill: #ffffff } 
	</style>
	<g id="Clip-Path" clip-path="url(#cp1)">
		<g id="Layer">
			<path id="Layer" fill-rule="evenodd" class="s0" d="m57.1 31q-0.9 0-1.6-0.6-0.6-0.7-0.6-1.6v-23.2q0-0.9 0.6-1.6 0.6-0.7 1.6-0.8 3.3-0.3 6.9-0.3 5.7 0 8.5 2.1 2.8 2.2 2.8 6.1 0 2.6-1.5 4.6-1.5 2-3.9 2.9 0 0 0 0.1 0 0 0.1 0 1.8 1.1 3.1 4.5l2.2 5.8q0.3 0.7-0.2 1.4-0.5 0.6-1.2 0.6h-2.3q-1 0-1.8-0.6-0.8-0.5-1.1-1.5l-1.9-5.4q-0.6-1.6-1.3-2.2-0.8-0.6-2.4-0.6h-1.6q-0.3 0-0.3 0.4v7.7q0 0.9-0.6 1.6-0.7 0.6-1.5 0.6zm4.1-22.6v7.2q0 0.4 0.3 0.4h1.9q2.6 0 4-1.1 1.4-1.2 1.4-3.2 0-3.9-5.2-3.9-1.1 0-2 0.1-0.4 0.1-0.4 0.5z"/>
			<path id="Layer" class="s0" d="m81.3 31q-0.9 0-1.6-0.6-0.6-0.7-0.6-1.6v-15.4q0-0.9 0.6-1.5 0.7-0.7 1.6-0.7h2.1q0.9 0 1.5 0.7 0.7 0.6 0.7 1.5v15.4q0 0.9-0.7 1.6-0.6 0.6-1.5 0.6zm0-23.6q-0.9 0-1.5-0.6-0.7-0.6-0.7-1.5v-0.6q0-0.9 0.7-1.6 0.6-0.6 1.5-0.6h2.1q0.9 0 1.5 0.6 0.7 0.7 0.7 1.6v0.6q0 0.9-0.7 1.5-0.6 0.6-1.5 0.6z"/>
			<path id="Layer" class="s0" d="m99.2 31.4q-4.9 0-7.5-2.6-2.7-2.6-2.7-7.7 0-5 2.5-7.6 2.6-2.6 7.3-2.6 1.6 0 4.1 0.3 1 0.2 1.6 0.9 0.6 0.7 0.6 1.6v0.4q0 0.8-0.7 1.3-0.6 0.5-1.4 0.3-1.6-0.2-3.2-0.2-2.2 0-3.3 1.3-1 1.4-1 4.3 0 3.1 1.1 4.4 1.1 1.3 3.5 1.3 1.8 0 3.2-0.3 0.8-0.2 1.4 0.3 0.7 0.5 0.7 1.3v0.4q0 0.9-0.6 1.7-0.6 0.7-1.5 0.8-2.1 0.4-4.1 0.4z"/>
			<path id="Layer" class="s0" d="m110.5 31q-0.9 0-1.5-0.6-0.6-0.7-0.6-1.6v-24.1q0-0.9 0.6-1.6 0.6-0.6 1.5-0.6h1.8q0.9 0 1.5 0.6 0.7 0.7 0.7 1.6v14q0 0 0 0h0.1l4.7-5.8q1.4-1.7 3.5-1.7h2.8q0.6 0 0.8 0.6 0.3 0.6-0.1 1.1l-6.5 7.6q-0.2 0.2 0 0.5l6.6 8.3q0.4 0.6 0.1 1.1-0.3 0.6-0.9 0.6h-2.8q-2.1 0-3.4-1.7l-4.8-6.2q-0.1-0.1-0.1-0.1 0 0 0 0.1v5.7q0 0.9-0.7 1.6-0.6 0.6-1.5 0.6z"/>
			<path id="Layer" class="s0" d="m134.3 30.7l-6.5-17.4q-0.3-0.8 0.2-1.4 0.5-0.7 1.3-0.7h2.3q1 0 1.7 0.7 0.8 0.5 1 1.4l2.9 11.8q0 0.1 0 0.1 0.1 0 0.1-0.1l3.4-11.8q0.3-0.9 1-1.5 0.8-0.6 1.8-0.6h2.1q0.8 0 1.2 0.7 0.5 0.6 0.2 1.4l-9 24q-0.3 1-1.1 1.5-0.8 0.6-1.8 0.6h-2q-0.8 0-1.3-0.7-0.4-0.6-0.1-1.3l2.6-6.1q0-0.1 0-0.3 0-0.2 0-0.3z"/>
			<g id="Layer">
				<path id="Layer" fill-rule="evenodd" class="s0" d="m35.8 13.1l-0.2 0.4 0.2 0.3c1 1.7 1.5 3.5 1.5 5.5 0 7-7.1 13-16.3 13-9.2 0-16.3-6-16.3-13 0-2 0.5-3.9 1.5-5.6l0.2-0.3-0.1-0.3c-0.9-2.6-1.2-5.6-1.3-7.6-0.1-0.7 0.5-1.1 1.1-0.9 1.6 0.5 3.8 1.5 5.8 3.3l0.4 0.3 0.5-0.2c2.4-1.1 5.2-1.8 8.2-1.8 3 0 5.9 0.7 8.3 1.8l0.5 0.2 0.3-0.3c2.1-1.8 4.3-2.8 5.9-3.3 0.6-0.2 1.1 0.2 1.1 0.9-0.1 2.1-0.4 5.1-1.3 7.6zm-25.3-3.8c-0.9-0.7-1.8-1.2-2.4-1.4-0.5-0.2-0.9 0.2-0.9 0.7 0.1 1 0.3 2.5 0.5 2.9 0.2 0.4 0.2 0.3 0.5 0 0.1-0.3 0.4-0.6 0.8-1 0.6-0.5 1-0.8 1.2-0.9 0.3-0.2 0.3-0.2 0.3-0.3zm23.4-1.4c-0.7 0.2-1.6 0.7-2.4 1.4-0.1 0.1 0 0.1 0.2 0.3 0.2 0.1 0.6 0.4 1.2 0.9 0.4 0.4 0.7 0.7 0.9 1 0.2 0.3 0.3 0.4 0.5 0 0.2-0.4 0.3-1.9 0.4-2.9 0.1-0.5-0.4-0.9-0.8-0.7zm-20.9 7.4c0.1-0.1 0.3-0.3 0.6-0.6 0.4-0.2 0.7-0.3 1-0.3 0.8 0 1.5 0.4 1.6 1.3 0 0.4 0.4 0.7 0.8 0.7 0.5-0.1 0.8-0.4 0.7-0.9-0.2-1.8-1.8-2.6-3.1-2.6-0.7 0-1.3 0.2-1.8 0.5-0.5 0.3-0.9 0.8-1.2 1.2-0.2 0.4 0 0.9 0.4 1 0.4 0.2 0.8 0.1 1-0.3zm-0.1 6.3c-0.4 0.2-0.6 0.7-0.4 1.1 0.3 0.6 1 1.3 1.8 1.8 0.7 0.6 1.7 1 2.8 1q0 0 0.1 0c0.1 1.4 1.8 3 3.8 3 2 0 3.7-1.6 3.8-3q0.1 0 0.1 0c1.1 0 2.1-0.4 2.8-1 0.8-0.5 1.5-1.2 1.8-1.8 0.2-0.4 0-0.9-0.4-1.1-0.4-0.1-0.8 0-1 0.4-0.2 0.3-0.6 0.8-1.2 1.2-0.6 0.5-1.3 0.7-2 0.7-1.3 0-2.9-0.9-3.1-2.8 1.3-0.2 2.3-0.8 2.3-1.5 0-0.8-1.4-1.5-3.1-1.5-1.7 0-3.1 0.7-3.1 1.5 0 0.7 1 1.3 2.3 1.5-0.2 1.9-1.8 2.8-3.1 2.8-0.7 0-1.4-0.2-2-0.7-0.6-0.4-1-0.9-1.2-1.2-0.2-0.4-0.6-0.5-1-0.4zm15.6-6.9c0.4 0.3 0.6 0.5 0.6 0.6 0.2 0.4 0.7 0.5 1.1 0.3 0.4-0.1 0.5-0.6 0.3-1-0.2-0.4-0.6-0.9-1.1-1.2-0.5-0.3-1.2-0.5-1.8-0.5-1.3 0-3 0.8-3.2 2.6 0 0.5 0.3 0.8 0.7 0.9 0.5 0 0.8-0.3 0.9-0.7 0.1-0.9 0.8-1.3 1.6-1.3 0.3 0 0.6 0.1 0.9 0.3z"/>
				<path id="Layer" fill-rule="evenodd" class="s0" d="m34.8 1c3.3-1.1 6.2 1.5 6.1 4.6-0.1 1.9-0.4 4.8-1.2 7.5 0.9 1.9 1.4 4 1.4 6.1 0 9.9-9.6 16.9-20.1 16.9-10.5 0-20.1-7-20.1-16.9 0-2.2 0.5-4.3 1.4-6.2-0.8-2.7-1-5.5-1.1-7.4-0.2-3.1 2.8-5.7 6.1-4.6 1.5 0.5 3.5 1.3 5.6 2.8 2.5-0.9 5.2-1.4 8.1-1.4 2.9 0 5.6 0.5 8.2 1.4 2-1.5 4.1-2.3 5.6-2.8zm-5.3 5.4c-2.5-1.1-5.4-1.7-8.5-1.7-3 0-5.9 0.6-8.4 1.7-2.2-1.8-4.4-2.7-6-3.3-1.7-0.5-3.3 0.8-3.2 2.5 0.1 2 0.4 5 1.3 7.6-1 1.9-1.6 3.9-1.6 6.1 0 8.2 8.2 14.6 17.9 14.6 9.7 0 17.9-6.4 17.9-14.6 0-2.1-0.6-4.2-1.5-6 0.9-2.7 1.2-5.7 1.3-7.7 0-1.7-1.5-3-3.2-2.5-1.6 0.6-3.9 1.6-6 3.3z"/>
			</g>
		</g>
	</g>
</svg>